<?xml version="1.0" standalone="no"?>
<!DOCTYPE svg PUBLIC "-//W3C//DTD SVG 20010904//EN"
 "http://www.w3.org/TR/2001/REC-SVG-20010904/DTD/svg10.dtd">
<svg version="1.0" xmlns="http://www.w3.org/2000/svg"
 width="3657.000000pt" height="598.000000pt" viewBox="0 0 3657.000000 598.000000"
 preserveAspectRatio="xMidYMid meet">

<g transform="translate(0.000000,598.000000) scale(0.100000,-0.100000)"
fill="#000000" stroke="none">
<path d="M16290 5479 c-515 -59 -965 -345 -1224 -776 -262 -438 -298 -1034
-91 -1518 207 -482 621 -815 1155 -927 137 -28 434 -35 596 -14 437 58 780
254 1057 605 60 76 65 86 49 97 -9 7 -156 111 -326 232 l-308 220 -107 -107
c-204 -206 -387 -282 -646 -268 -309 17 -552 211 -660 527 -37 108 -48 204
-42 357 9 254 75 410 242 579 74 74 106 99 175 132 121 59 193 76 330 75 240
-1 406 -75 595 -268 l91 -93 309 240 c171 132 316 246 324 253 17 16 -1 43
-108 164 -291 329 -721 505 -1220 500 -64 -1 -150 -5 -191 -10z"/>
<path d="M10595 3958 c-346 -821 -647 -1532 -667 -1580 l-37 -88 457 0 457 0
110 278 111 277 608 0 608 0 112 -275 112 -275 467 -3 c450 -2 466 -2 459 16
-4 10 -304 721 -667 1580 l-660 1562 -420 0 -420 0 -630 -1492z m1223 5 l169
-433 -349 0 c-329 0 -350 1 -344 18 47 134 342 860 348 854 4 -4 83 -202 176
-439z"/>
<path d="M19277 5443 c-9 -15 -1320 -3118 -1324 -3135 -5 -17 21 -18 449 -18
l454 0 111 278 111 277 608 0 608 0 112 -275 112 -275 467 -3 c274 -1 465 2
463 7 -1 5 -302 716 -667 1580 l-665 1571 -417 0 c-230 0 -420 -3 -422 -7z
m589 -1471 l172 -437 -346 -3 c-190 -1 -347 -1 -348 1 -5 5 340 876 346 877 3
0 82 -197 176 -438z"/>
<path d="M30719 5403 c-11 -27 -309 -730 -661 -1563 -352 -833 -644 -1523
-649 -1532 -9 -17 15 -18 449 -18 l458 0 111 278 111 277 608 0 607 0 113
-275 112 -275 467 -3 c260 -1 465 2 463 6 -1 5 -302 716 -668 1581 l-664 1571
-418 0 -419 0 -20 -47z m607 -1431 l171 -437 -345 -3 c-190 -1 -347 -1 -349 1
-5 5 340 877 347 877 3 0 82 -197 176 -438z"/>
<path d="M7380 3860 l0 -1570 1195 0 1195 0 0 380 0 380 -760 0 -760 0 0 1190
0 1190 -435 0 -435 0 0 -1570z"/>
<path d="M21760 3860 l0 -1570 435 0 435 0 0 475 0 475 188 0 189 0 316 -475
317 -475 501 0 c397 0 499 3 493 12 -4 7 -172 253 -373 547 -249 366 -360 536
-351 539 8 3 43 21 79 40 246 130 415 322 494 560 47 141 61 252 54 427 -24
591 -419 949 -1111 1005 -74 6 -455 10 -897 10 l-769 0 0 -1570z m1602 799
c133 -29 226 -97 274 -202 25 -54 29 -74 29 -157 0 -83 -4 -103 -29 -157 -50
-109 -146 -178 -289 -207 -60 -13 -143 -16 -397 -16 l-320 0 0 375 0 375 340
0 c214 0 359 -4 392 -11z"/>
<path d="M25000 3860 l0 -1570 435 0 435 0 0 1570 0 1570 -435 0 -435 0 0
-1570z"/>
<path d="M26450 3861 l0 -1571 663 0 c700 0 798 4 1006 46 535 107 934 389
1145 811 249 497 214 1146 -85 1593 -237 355 -626 579 -1148 662 -128 20 -179
21 -858 25 l-723 5 0 -1571z m1342 789 c226 -22 391 -93 529 -230 73 -73 94
-100 132 -180 72 -151 98 -317 77 -496 -39 -335 -241 -566 -566 -649 -108 -27
-198 -35 -421 -35 l-223 0 0 800 0 800 183 0 c100 0 230 -5 289 -10z"/>
<path d="M33220 3861 l0 -1571 663 0 c700 0 798 4 1006 46 751 150 1222 641
1300 1356 41 373 -45 755 -235 1040 -241 362 -627 586 -1153 670 -128 20 -179
21 -858 25 l-723 5 0 -1571z m1342 789 c226 -22 391 -93 529 -230 73 -73 94
-100 132 -180 72 -151 98 -317 77 -496 -39 -335 -241 -566 -566 -649 -108 -27
-198 -35 -421 -35 l-223 0 0 800 0 800 183 0 c100 0 230 -5 289 -10z"/>
<path d="M3532 3501 c-337 -341 -611 -625 -608 -630 3 -5 25 -13 48 -19 50
-13 138 -68 138 -87 0 -14 -102 -112 -164 -157 -49 -36 -113 -37 -210 -6 l-69
23 -337 -345 -338 -345 68 -5 c38 -3 72 -9 77 -13 15 -16 21 -171 28 -707 3
-294 11 -564 16 -599 19 -123 112 -257 217 -314 51 -28 135 -52 212 -62 25 -3
268 -8 540 -12 544 -6 601 -3 707 47 86 40 144 103 199 215 75 154 75 155 81
813 7 677 -3 622 109 628 38 2 94 7 124 10 30 3 334 9 675 13 680 8 646 5 775
71 103 53 202 191 230 320 15 72 24 722 13 941 -8 158 -10 169 -41 231 -54
110 -168 196 -307 233 -104 27 -292 36 -905 44 -438 6 -622 11 -638 20 -20 11
-22 19 -24 163 l-3 151 -613 -622z m443 70 c118 -56 189 -155 190 -266 0 -89
-32 -144 -129 -222 -43 -35 -74 -63 -68 -63 5 0 47 7 92 16 107 20 126 13 244
-86 112 -94 126 -118 84 -141 -12 -7 -162 -47 -333 -89 -201 -50 -352 -94
-430 -125 -66 -26 -131 -51 -144 -56 -23 -9 -23 -10 16 -38 88 -64 135 -153
156 -292 21 -147 -28 -295 -139 -417 -31 -35 -117 -115 -190 -178 -190 -164
-227 -212 -227 -300 0 -40 7 -64 32 -108 18 -30 36 -58 41 -61 5 -3 21 15 35
40 38 64 44 146 16 210 -11 26 -21 56 -21 65 0 19 69 85 113 109 43 23 74 7
118 -61 49 -77 73 -156 65 -214 -11 -87 -50 -141 -205 -294 -82 -80 -157 -161
-167 -180 -15 -28 -18 -54 -16 -125 2 -119 -6 -131 -56 -82 -94 92 -94 243 0
374 53 74 52 71 5 66 -41 -5 -45 -3 -88 45 -66 73 -129 201 -129 261 0 82 46
156 189 305 168 175 255 274 275 313 18 37 21 119 5 178 -6 22 -26 75 -46 118
-19 43 -32 85 -29 93 22 57 -111 -73 -144 -141 -17 -35 -26 -72 -28 -122 -5
-90 -1 -104 43 -173 51 -80 48 -94 -40 -179 -85 -83 -90 -83 -164 -22 -226
188 -226 590 -1 812 177 175 485 330 835 420 l130 34 -55 7 c-77 12 -152 49
-203 102 -64 65 -82 108 -82 191 0 59 4 78 29 119 44 75 92 123 158 156 85 42
177 43 263 1z m-646 -2627 c50 -35 64 -119 32 -189 -31 -68 -126 -139 -144
-107 -3 4 -1 64 3 134 5 93 11 133 24 152 19 30 51 34 85 10z"/>
<path d="M20387 1457 c-26 -62 -47 -116 -47 -120 0 -4 27 -7 59 -7 l59 0 79
107 c43 59 82 113 86 120 6 10 -12 13 -91 13 l-98 0 -47 -113z"/>
<path d="M31351 1548 c-5 -13 -27 -67 -49 -120 l-41 -98 62 0 62 0 57 78 c31
42 71 96 88 120 l32 42 -101 0 c-96 0 -102 -1 -110 -22z"/>
<path d="M12360 1430 l0 -90 90 0 90 0 0 90 0 90 -90 0 -90 0 0 -90z"/>
<path d="M13950 1430 l0 -90 90 0 90 0 0 90 0 90 -90 0 -90 0 0 -90z"/>
<path d="M21750 1430 l0 -90 95 0 95 0 0 90 0 90 -95 0 -95 0 0 -90z"/>
<path d="M32700 1430 l0 -90 90 0 90 0 0 90 0 90 -90 0 -90 0 0 -90z"/>
<path d="M8350 885 l0 -625 340 0 340 0 0 85 0 85 -245 0 -245 0 0 200 0 200
225 0 225 0 0 80 0 80 -225 0 -225 0 0 180 0 180 240 0 240 0 0 80 0 80 -335
0 -335 0 0 -625z"/>
<path d="M13560 885 l0 -625 90 0 90 0 0 625 0 625 -90 0 -90 0 0 -625z"/>
<path d="M14798 1299 l-3 -211 -31 45 c-88 125 -308 119 -394 -10 -59 -90 -86
-246 -77 -438 14 -257 81 -392 215 -431 114 -33 215 -3 266 80 l31 49 3 -61 3
-62 84 0 85 0 0 625 0 625 -90 0 -90 0 -2 -211z m-73 -243 c53 -35 85 -155 85
-326 0 -176 -34 -296 -91 -325 -46 -25 -122 -19 -158 10 -57 48 -66 95 -66
330 0 200 1 212 23 258 13 26 36 54 50 62 35 20 121 14 157 -9z"/>
<path d="M16449 1298 c0 -169 -3 -209 -12 -194 -53 84 -113 117 -211 117 -167
0 -249 -103 -277 -350 -19 -170 7 -386 60 -488 23 -45 72 -93 121 -119 26 -14
57 -19 115 -19 96 0 141 22 186 94 l29 45 0 -62 0 -62 85 0 85 0 0 625 0 625
-90 0 -90 0 -1 -212z m-95 -232 c73 -31 106 -131 106 -332 0 -186 -26 -290
-84 -327 -16 -11 -46 -17 -80 -17 -70 0 -107 29 -133 103 -15 43 -18 84 -18
242 0 221 9 269 62 315 38 34 90 40 147 16z"/>
<path d="M21370 1298 c0 -212 0 -213 -19 -183 -45 73 -112 107 -209 106 -122
-1 -200 -65 -243 -199 -18 -55 -23 -99 -27 -238 -6 -241 22 -370 99 -458 42
-49 100 -77 168 -83 102 -9 180 28 221 106 l19 36 1 -62 0 -63 90 0 90 0 0
625 0 625 -95 0 -95 0 0 -212z m-79 -241 c19 -12 45 -44 59 -72 24 -48 25 -57
25 -245 0 -221 -8 -265 -60 -317 -30 -30 -39 -33 -89 -33 -36 0 -66 6 -82 17
-63 41 -89 163 -81 383 8 227 40 288 153 289 27 1 53 -7 75 -22z"/>
<path d="M27330 1299 l0 -211 -33 44 c-45 60 -110 90 -191 90 -194 -1 -278
-144 -279 -472 0 -213 29 -336 99 -419 56 -65 104 -86 199 -86 97 0 135 18
183 89 l32 48 0 -61 0 -61 90 0 90 0 0 625 0 625 -95 0 -95 0 0 -211z m-72
-246 c64 -47 86 -147 79 -363 -5 -172 -16 -217 -63 -267 -29 -31 -36 -33 -94
-33 -58 0 -65 2 -94 33 -46 49 -57 95 -63 267 -8 234 16 340 87 378 34 18 115
10 148 -15z"/>
<path d="M30660 885 l0 -625 90 0 90 0 0 625 0 625 -90 0 -90 0 0 -625z"/>
<path d="M29400 1335 l0 -135 -65 0 -65 0 0 -65 0 -65 65 0 65 0 0 -327 c0
-181 5 -346 10 -367 11 -49 38 -87 76 -106 30 -15 175 -19 227 -6 26 6 27 9
27 71 l0 65 -54 0 c-38 0 -61 6 -77 19 l-24 19 -3 316 -3 316 80 0 81 0 0 65
0 65 -80 0 -80 0 0 135 0 135 -90 0 -90 0 0 -135z"/>
<path d="M9400 1219 c-169 -18 -250 -102 -250 -260 0 -65 4 -85 28 -130 35
-67 87 -100 239 -154 125 -44 149 -57 169 -96 17 -34 18 -115 1 -148 -19 -39
-72 -64 -136 -65 -100 0 -151 50 -151 148 l0 46 -81 0 -82 0 5 -80 c6 -106 39
-162 120 -204 109 -55 307 -45 403 22 89 62 131 177 106 294 -24 111 -76 157
-251 219 -171 60 -200 84 -200 165 0 75 53 124 134 124 78 0 126 -48 126 -127
l0 -43 91 0 92 0 -7 63 c-19 168 -144 248 -356 226z"/>
<path d="M10272 1218 c-59 -10 -100 -36 -139 -87 l-33 -43 0 56 0 56 -90 0
-90 0 0 -600 0 -600 95 0 95 0 0 187 0 186 31 -42 c37 -51 114 -91 178 -91
140 0 239 99 277 278 29 141 13 422 -31 528 -54 130 -164 195 -293 172z m79
-174 c41 -40 60 -109 66 -254 9 -205 -19 -342 -79 -384 -14 -10 -44 -16 -81
-16 -53 0 -62 3 -92 33 -48 48 -57 91 -62 283 -8 290 34 381 170 371 36 -3 55
-11 78 -33z"/>
<path d="M11029 1219 c-204 -22 -298 -200 -286 -539 9 -269 82 -397 245 -431
217 -45 385 67 418 279 l7 42 -92 0 -91 0 0 -35 c0 -113 -91 -192 -190 -165
-74 20 -108 90 -117 243 l-6 97 248 0 247 0 -4 138 c-5 153 -23 217 -78 284
-57 69 -169 101 -301 87z m127 -138 c43 -26 67 -82 72 -173 l5 -78 -158 0
-158 0 6 67 c8 87 46 165 90 187 43 21 105 20 143 -3z"/>
<path d="M11830 1219 c-83 -10 -135 -36 -185 -91 -81 -90 -111 -223 -102 -446
8 -180 33 -269 102 -350 82 -97 305 -121 421 -46 73 47 120 141 131 257 l6 57
-85 0 -85 0 -6 -58 c-6 -69 -36 -133 -69 -149 -97 -48 -193 4 -218 119 -31
142 -21 403 19 493 23 53 70 85 123 85 80 0 125 -49 135 -145 l6 -55 94 0 94
0 -7 48 c-30 209 -161 308 -374 281z"/>
<path d="M12985 1219 c-86 -8 -155 -39 -196 -88 -33 -40 -59 -115 -59 -173 l0
-38 84 0 83 0 6 45 c13 94 58 135 149 135 87 0 136 -61 125 -157 -7 -69 -32
-86 -165 -123 -202 -56 -264 -98 -293 -199 -22 -74 -17 -198 10 -254 51 -105
164 -149 299 -115 36 9 60 25 105 70 49 51 57 55 57 35 0 -69 102 -119 196
-96 l44 11 0 59 c0 55 -1 59 -24 59 -49 0 -51 10 -56 360 l-5 327 -26 39 c-53
80 -173 117 -334 103z m190 -674 c-13 -106 -74 -167 -167 -167 -43 0 -55 4
-81 31 -29 28 -32 38 -35 103 -3 64 -1 78 20 108 26 39 53 54 178 102 l85 33
3 -80 c2 -44 1 -103 -3 -130z"/>
<path d="M15413 1219 c-85 -8 -150 -36 -192 -85 -33 -37 -61 -117 -61 -176 l0
-38 85 0 85 0 1 33 c2 92 56 147 143 147 97 0 146 -62 133 -165 -8 -53 -39
-79 -130 -105 -231 -66 -275 -90 -317 -175 -32 -64 -35 -204 -7 -277 36 -93
136 -147 252 -135 70 7 124 36 174 94 38 44 41 46 41 23 0 -72 100 -123 196
-99 l44 11 0 59 c0 55 -1 59 -24 59 -49 0 -51 10 -56 360 l-5 327 -26 39 c-54
81 -173 117 -336 103z m196 -581 c-4 -107 -7 -130 -29 -173 -31 -62 -72 -87
-142 -87 -43 0 -55 4 -81 31 -28 27 -32 38 -35 100 -5 81 15 134 59 156 15 8
67 29 114 46 47 17 88 35 91 40 3 5 10 9 16 9 6 0 9 -42 7 -122z"/>
<path d="M17083 1219 c-148 -19 -239 -123 -273 -310 -20 -106 -15 -321 9 -413
34 -129 76 -186 166 -228 42 -19 67 -23 150 -23 89 0 106 3 157 28 32 16 73
47 93 69 41 49 75 133 75 188 l0 40 -83 0 -82 0 -12 -61 c-21 -110 -91 -164
-181 -139 -79 21 -113 89 -120 238 l-5 102 247 0 246 0 0 98 c-1 184 -46 311
-130 364 -69 44 -158 60 -257 47z m143 -150 c37 -34 53 -77 61 -164 l6 -75
-158 0 -158 0 5 68 c6 86 36 155 80 182 46 29 127 23 164 -11z"/>
<path d="M17850 1219 c-190 -20 -286 -158 -239 -344 13 -52 67 -119 118 -144
20 -10 86 -36 146 -57 125 -43 169 -77 181 -138 20 -110 -64 -187 -186 -169
-69 9 -107 52 -116 131 l-7 62 -80 0 -80 0 5 -69 c6 -84 38 -153 88 -193 111
-87 376 -71 472 29 52 55 71 99 76 179 6 92 -15 158 -66 206 -45 43 -75 59
-190 99 -166 59 -195 83 -196 158 -2 87 45 131 139 131 40 0 52 -5 80 -33 26
-26 35 -46 41 -85 l7 -52 85 0 85 0 -5 63 c-14 170 -139 249 -358 226z"/>
<path d="M19173 1219 c-61 -11 -116 -43 -157 -90 l-36 -43 0 57 0 57 -85 0
-85 0 0 -470 0 -470 90 0 90 0 0 343 c0 336 0 344 23 387 51 102 178 122 225
36 15 -27 17 -77 20 -399 l3 -367 89 0 89 0 3 352 c3 332 4 355 23 387 28 48
65 72 119 78 33 4 53 1 72 -11 51 -34 54 -55 54 -446 l0 -360 96 0 95 0 -3
398 c-3 356 -5 401 -21 437 -40 89 -100 126 -205 126 -100 0 -158 -28 -212
-103 l-29 -39 -17 33 c-22 44 -43 67 -77 85 -40 20 -114 30 -164 22z"/>
<path d="M20355 1220 c-145 -21 -234 -117 -272 -293 -23 -110 -14 -380 16
-467 32 -95 78 -152 148 -186 52 -26 68 -29 158 -29 80 0 109 5 146 21 91 42
159 127 174 220 3 21 8 49 11 62 4 21 2 22 -85 22 l-88 0 -5 -44 c-12 -101
-66 -160 -148 -160 -102 0 -149 72 -158 239 l-5 105 248 0 248 0 -5 133 c-6
144 -24 217 -72 280 -32 42 -108 84 -167 92 -85 11 -94 12 -144 5z m121 -136
c46 -22 74 -84 81 -179 l6 -75 -158 0 -158 0 5 68 c6 86 36 155 80 182 40 24
98 26 144 4z"/>
<path d="M22384 1219 c-144 -18 -234 -111 -270 -278 -18 -87 -18 -325 1 -413
38 -183 132 -274 295 -286 205 -15 321 88 347 306 l6 52 -84 0 -85 0 -11 -70
c-17 -111 -58 -154 -143 -153 -67 1 -103 29 -131 101 -21 52 -23 73 -24 247 0
216 12 279 64 329 24 23 42 30 86 34 51 4 56 3 89 -30 34 -34 56 -89 56 -140
l0 -28 91 0 92 0 -6 59 c-12 142 -105 250 -229 266 -23 4 -52 8 -63 9 -11 2
-48 -1 -81 -5z"/>
<path d="M23153 1219 c-85 -8 -150 -36 -192 -85 -33 -37 -61 -117 -61 -176 l0
-38 85 0 85 0 0 33 c1 49 34 113 69 131 42 22 119 20 157 -3 39 -24 58 -76 51
-139 -7 -60 -35 -85 -130 -112 -216 -62 -268 -88 -306 -151 -43 -71 -50 -221
-14 -312 34 -83 138 -135 248 -124 70 7 124 36 174 94 38 44 41 46 41 23 0
-72 100 -123 196 -99 l44 11 0 59 c0 55 -1 59 -24 59 -49 0 -51 10 -56 360
l-5 327 -26 39 c-54 81 -173 117 -336 103z m196 -581 c-4 -107 -7 -130 -29
-173 -31 -62 -72 -87 -142 -87 -43 0 -55 4 -81 31 -27 26 -32 39 -35 96 -8
116 22 152 166 204 51 18 94 37 97 42 4 5 11 9 17 9 6 0 9 -42 7 -122z"/>
<path d="M23937 1218 c-82 -8 -144 -37 -191 -88 -40 -45 -56 -92 -56 -170 0
-155 64 -217 298 -295 98 -32 138 -62 152 -116 24 -89 -17 -161 -103 -178
-119 -24 -197 35 -197 149 l0 40 -81 0 -82 0 5 -72 c8 -115 63 -197 155 -229
59 -21 236 -18 302 5 79 27 144 94 166 170 40 138 -8 271 -117 327 -21 11 -88
37 -150 59 -129 45 -167 75 -175 136 -12 93 49 151 151 141 66 -6 100 -42 110
-115 l7 -52 84 0 85 0 0 38 c0 54 -24 127 -54 166 -51 68 -165 99 -309 84z"/>
<path d="M26297 1218 c-118 -15 -200 -84 -243 -203 -48 -133 -53 -385 -10
-530 51 -170 176 -257 351 -243 209 17 314 183 314 493 0 358 -138 520 -412
483z m126 -142 c40 -16 61 -47 81 -117 35 -126 28 -411 -12 -502 -24 -55 -65
-79 -132 -79 -130 0 -166 87 -157 387 5 184 14 228 54 276 42 50 101 62 166
35z"/>
<path d="M27954 1218 c-106 -12 -181 -64 -230 -160 -39 -76 -54 -166 -54 -324
0 -260 58 -397 196 -465 70 -34 216 -35 290 -1 137 62 204 214 204 466 0 191
-33 315 -105 394 -67 75 -169 105 -301 90z m134 -148 c68 -42 99 -187 89 -410
-10 -196 -38 -261 -124 -280 -86 -20 -159 24 -185 112 -20 69 -18 408 4 478
16 52 54 100 88 113 34 12 97 6 128 -13z"/>
<path d="M28889 1219 c-64 -10 -121 -41 -163 -90 l-36 -43 0 57 0 57 -90 0
-90 0 0 -470 0 -470 95 0 95 0 0 348 c0 344 0 350 23 392 38 72 127 101 198
64 57 -29 59 -47 59 -444 l0 -360 96 0 95 0 -3 403 c-3 400 -3 402 -27 450
-41 84 -135 123 -252 106z"/>
<path d="M30086 1218 c-130 -17 -217 -103 -257 -253 -27 -105 -30 -335 -5
-439 21 -90 70 -179 117 -217 64 -51 105 -63 209 -63 79 -1 104 3 147 23 144
65 212 239 200 516 -3 72 -12 153 -20 182 -55 195 -185 279 -391 251z m134
-146 c54 -27 78 -86 92 -224 14 -144 0 -322 -30 -391 -26 -60 -57 -79 -127
-79 -70 -1 -100 19 -135 88 -24 48 -25 55 -25 254 0 171 3 214 18 256 17 48
55 95 87 107 31 11 86 6 120 -11z"/>
<path d="M31288 1218 c-111 -14 -188 -72 -233 -173 -63 -142 -70 -413 -15
-580 45 -136 144 -214 283 -223 183 -11 305 82 354 271 25 99 25 353 0 446
-54 201 -183 287 -389 259z m127 -144 c60 -28 82 -82 95 -236 13 -137 -1 -320
-29 -382 -23 -52 -63 -78 -126 -78 -130 -2 -165 72 -165 347 0 166 10 239 43
297 35 63 112 85 182 52z"/>
<path d="M32085 1219 c-62 -8 -100 -27 -141 -71 -80 -84 -108 -208 -102 -442
6 -184 25 -264 81 -338 98 -128 298 -128 384 1 l23 34 0 -109 c0 -126 -13
-164 -70 -202 -30 -20 -45 -23 -97 -20 -52 3 -68 9 -92 32 -16 16 -32 39 -35
52 -6 23 -10 24 -91 24 -72 0 -85 -3 -85 -16 0 -35 24 -94 52 -128 l29 -36
229 0 228 0 39 44 c77 88 77 87 81 654 l3 502 -90 0 -91 0 0 -57 -1 -58 -20
38 c-38 72 -130 110 -234 96z m154 -153 c71 -37 94 -127 89 -340 -3 -149 -5
-165 -30 -218 -31 -66 -64 -88 -134 -88 -39 0 -51 5 -79 33 -51 51 -60 97 -60
302 0 176 1 181 28 236 40 82 114 112 186 75z"/>
<path d="M33327 1219 c-167 -24 -252 -138 -278 -374 -25 -224 21 -434 113
-522 61 -58 120 -78 233 -78 84 1 108 5 148 24 89 44 142 135 162 279 l7 52
-85 0 -85 0 -7 -52 c-9 -71 -37 -133 -70 -154 -37 -24 -119 -23 -153 3 -65 49
-86 146 -79 373 5 185 14 227 61 277 27 30 41 36 82 40 85 7 127 -32 146 -135
l12 -62 88 0 88 0 0 34 c0 19 -9 64 -21 101 -45 147 -181 219 -362 194z"/>
<path d="M34105 1219 c-157 -14 -236 -87 -254 -234 l-7 -65 88 0 88 0 0 35 c0
88 56 145 142 145 85 0 120 -31 134 -117 8 -51 -16 -107 -53 -126 -15 -8 -79
-29 -141 -46 -135 -37 -179 -58 -219 -105 -45 -50 -58 -98 -58 -206 1 -72 5
-103 19 -130 49 -93 130 -136 242 -127 77 6 137 37 180 94 l33 43 11 -34 c6
-18 21 -42 33 -54 32 -31 107 -45 162 -31 l45 11 0 59 c0 56 -1 59 -24 59 -53
0 -56 17 -56 350 0 276 -2 309 -19 345 -49 106 -164 150 -346 134z m193 -584
c-5 -100 -10 -133 -28 -169 -27 -57 -75 -88 -138 -89 -58 -1 -87 14 -109 56
-21 41 -21 142 0 184 21 39 43 53 155 92 51 19 95 38 98 42 3 5 10 9 16 9 8 0
9 -38 6 -125z"/>
<path d="M34890 1219 c-169 -18 -250 -102 -250 -260 0 -65 4 -85 28 -130 35
-67 87 -100 239 -154 125 -44 149 -57 169 -96 17 -34 18 -115 1 -148 -19 -39
-72 -64 -136 -65 -100 0 -151 50 -151 148 l0 46 -81 0 -82 0 5 -80 c9 -154 90
-228 265 -237 206 -12 338 70 365 228 13 76 -1 160 -35 211 -32 47 -104 92
-199 123 -178 59 -218 90 -218 170 0 76 53 125 134 125 78 0 126 -48 126 -127
l0 -43 91 0 92 0 -7 63 c-19 168 -144 248 -356 226z"/>
<path d="M12360 730 l0 -470 90 0 90 0 0 470 0 470 -90 0 -90 0 0 -470z"/>
<path d="M13950 730 l0 -470 90 0 90 0 0 470 0 470 -90 0 -90 0 0 -470z"/>
<path d="M21750 730 l0 -470 95 0 95 0 0 470 0 470 -95 0 -95 0 0 -470z"/>
<path d="M24810 1198 c0 -2 60 -218 134 -481 l133 -477 -18 -52 c-26 -77 -55
-98 -135 -98 l-64 0 0 -45 0 -45 150 0 150 0 25 38 c38 57 64 145 200 661 69
262 128 482 130 489 4 10 -17 12 -92 10 l-96 -3 -62 -290 c-35 -159 -68 -316
-75 -349 -6 -32 -15 -54 -20 -50 -4 5 -43 163 -86 352 l-78 342 -98 0 c-54 0
-98 -1 -98 -2z"/>
<path d="M32700 730 l0 -470 90 0 90 0 0 470 0 470 -90 0 -90 0 0 -470z"/>
</g>
</svg>
